PathFileType	4	(X/Y/Z)	0_1_24_p0_0-342.trc
DataRate	CameraRate	NumFrames	NumMarkers	Units	OrigDataRate	OrigDataStartFrame	OrigNumFrames
60	60	5	27	m	60	171	342
Frame#	Time	RHip			RKnee			RAnkle			RBigToe			RSmallToe			RHeel			LHip			LKnee			LAnkle			LBigToe			LSmallToe			LHeel			Neck			Head			Nose			RShoulder			RElbow			RWrist			RThumb			RIndex			RPinky			LShoulder			LElbow			LWrist			LThumb			LIndex			LPinky		
		X1	Y1	Z1	X2	Y2	Z2	X3	Y3	Z3	X4	Y4	Z4	X5	Y5	Z5	X6	Y6	Z6	X7	Y7	Z7	X8	Y8	Z8	X9	Y9	Z9	X10	Y10	Z10	X11	Y11	Z11	X12	Y12	Z12	X13	Y13	Z13	X14	Y14	Z14	X15	Y15	Z15	X16	Y16	Z16	X17	Y17	Z17	X18	Y18	Z18	X19	Y19	Z19	X20	Y20	Z20	X21	Y21	Z21	X22	Y22	Z22	X23	Y23	Z23	X24	Y24	Z24	X25	Y25	Z25	X26	Y26	Z26	X27	Y27	Z27
172	2.8666666666666667	0.13209686825176764	0.20803698057163683	0.03939075552118408	0.11436722698335723	0.21776152967204493	-0.38160894775182186	0.15306557254253983	0.2138975237027425	-0.7951828229102915	0.16713188675779445	0.052365799160215595	-0.7795903786691695	0.09958649944469519	0.08314791647440554	-0.7932428199162619	0.16845322930612214	0.2618465889578655	-0.8579955406666875	0.33601255171761907	0.18534961176127174	0.038395830757608454	0.343705572108482	0.14521554471001744	-0.3429364513976716	0.34097119035747403	0.23936180854602804	-0.8287314075375362	0.3218394816664504	0.05881037499203663	-0.7929058701736666	0.3647585220154249	0.09673747354647681	-0.7976628452707992	0.3313044789449402	0.2786500029443418	-0.8784236107386978	0.23838114394064344	0.2324036980014654	0.5350093130382506	0.20949548070782845	0.1648578896081103	0.7940937147175762	0.20806812651977696	0.11311825488898922	0.6727653639020709	0.074825303178135	0.18432303067490635	0.4984973023135405	-0.01048884611151853	0.28551474955822564	0.22319352706486073	-0.010058778018950021	0.25698302170888	-0.0012374953332762167	0.028562799155521058	0.22939764026916068	-0.11063349155991083	0.008844164212354953	0.20461815426924432	-0.12823916347540715	-0.016436416933564253	0.24842235238198365	-0.14024015502297163	0.3722257703976534	0.2575071882417912	0.47934967874069473	0.42538798309498815	0.3457349377086068	0.22984060996584368	0.4028173999451526	0.15887457017894685	0.3001749944513142	0.38539295481699676	0.07615095853296089	0.3707984819043457	0.38982232638989367	0.07281680953918308	0.3631834697966826	0.3706559765878723	0.08576889663969044	0.3168331876076014
173	2.8833333333333333	0.12945576756336866	0.21925310504297296	0.030882474387695546	0.12414796560312086	0.22971060290356043	-0.3890499406320294	0.15236594406474901	0.21473471726702995	-0.800208995264376	0.16720089850381223	0.05234188939077404	-0.7795959773363428	0.10054106627851746	0.08210063442253945	-0.7974704747748402	0.16644069037964562	0.234503349614803	-0.8378955679225608	0.3363956519682773	0.1849451781280725	0.03460616433209602	0.3432116435761535	0.146276869378831	-0.34829513511233096	0.34337652633435833	0.22635443290841828	-0.8198094875509705	0.3226442052437352	0.05779225421813464	-0.796976377216817	0.3656046402567389	0.09577742206290413	-0.801705040072992	0.33141240317434917	0.2784700796972086	-0.8783811845485154	0.238263591448641	0.23331224291561653	0.5380142577386916	0.20941766312236337	0.1653970235168605	0.7969448623677734	0.2053621469063276	0.12320225796286995	0.6709281201838584	0.07492432243747003	0.18525528214403628	0.5022757635103496	-0.01414148200280872	0.29843465932700947	0.22299046301489436	-0.0020663917338578615	0.23312781372853694	0.008384421113727258	0.03698571413839181	0.21657584194832158	-0.10017338820987123	0.01583829392196801	0.19831905927669938	-0.11676208085726293	-0.006644100181331665	0.21368854745741517	-0.12849732438766112	0.3776859506457698	0.27015224091250545	0.47628738806116766	0.4359558043005463	0.35788270254265125	0.2385868711967326	0.41085665202300536	0.15554077097303504	0.3005432693678996	0.383120709986952	0.0864670879317892	0.35091543350622373	0.3886659270260093	0.07229062296134912	0.347191886964949	0.37063316317528766	0.08341531298582028	0.30082779295344997
174	2.9	0.12933803128706073	0.21912908727196098	0.031008598362113143	0.1295186116333178	0.24390871514302004	-0.397574282281033	0.15238281240227278	0.21465546799174573	-0.8002018181305476	0.1671233775911146	0.052035776767577466	-0.7794626259554223	0.10042315345055709	0.081888706707198	-0.7973062908045647	0.16305457946310659	0.24762741047919223	-0.8472861584670597	0.3363856055271879	0.18508109491109698	0.034979710746267156	0.3433822613861508	0.14637638890526886	-0.3570261020594149	0.3404519641438879	0.24072869309740305	-0.8348860926945293	0.32268272395798536	0.0577559623632106	-0.7970367427207727	0.3596678268538325	0.08242499362860552	-0.7916197449364476	0.33772157989179746	0.29396857327777	-0.8898892308605189	0.23805081462690664	0.23431880250054893	0.5416105045836224	0.20606446737826017	0.1668866914254534	0.7968909551316432	0.20534550374809601	0.12332880901503344	0.6710172818995148	0.07493462989235743	0.1854818795494955	0.5026168120024612	-0.014245541581830485	0.2985059509341335	0.22331237005522647	0.005627256581242014	0.20981685427436908	0.02195996550611611	0.04911809756749061	0.17247930364006187	-0.0929197945288416	0.02350945626338403	0.15979197538059303	-0.10370702331662761	-0.0029468797932796858	0.17491408009638515	-0.10558011463779732	0.3719505385386382	0.2581618857088033	0.4827582373266047	0.4305118399752488	0.37554774068675856	0.2402528213358965	0.4165149004209514	0.16684269758697642	0.2844841097833895	0.38346584241667503	0.08669948626475893	0.3427275343384548	0.3893829456494248	0.07021279427219007	0.3329478058104363	0.37563958639814216	0.08082065302284963	0.2707374904590121
175	2.9166666666666665	0.1292209041743654	0.2192053382421073	0.031297758216499716	0.12744000286695797	0.21667208791516113	-0.387050724007818	0.15219064202255578	0.21418909419591287	-0.7901523085994872	0.16738582388723677	0.052337196789658536	-0.7795346906580874	0.1013568997624205	0.08110493704817684	-0.7925309639222343	0.16095537131707066	0.2369188651464963	-0.8345095346582198	0.3362547048367113	0.18573229571015404	0.04356842383734923	0.34286445293924056	0.14495361678865093	-0.35203368448069966	0.339473562740464	0.2416305697750564	-0.8301496525588468	0.3268090049872229	0.05457528670118229	-0.785908662146299	0.3647192032504811	0.09684446056155889	-0.7976083436309592	0.33031995792836183	0.27912603119205753	-0.8734345232344065	0.23178184525116874	0.24820592082468	0.5419561034891054	0.20595511223758303	0.16685627119553367	0.7968085330417161	0.20524639832754724	0.12347217717977046	0.6709614551227531	0.071976566520244	0.19642068226784376	0.49997356646911345	-0.014320444408378675	0.29872574399649965	0.22330009597421105	0.010524612061840652	0.20674951205847097	0.02742630458308363	0.06970933693847503	0.10938877942282424	-0.05619477848625243	0.05364044134321521	0.09657997303062371	-0.06641225426828087	0.001486006967857768	0.1606675358373931	-0.09382637231247147	0.3718886551862068	0.25705588884492164	0.4869848750388414	0.43477162598195	0.40138272169242073	0.2356873631979427	0.4065929420948318	0.17662054496328425	0.2614112905353031	0.38352857212425695	0.08516317433917553	0.3312792820265846	0.39044662815263587	0.06400467591899124	0.3087512821516433	0.3923206259541093	0.08457144629914029	0.2537110427270564
176	2.933333333333333	0.12978512098398956	0.2186078878875658	0.03569417582668197	0.13884154255812456	0.2280431908487104	-0.3809523321233269	0.1522530053469147	0.2142652335357814	-0.7900808484895252	0.16747551042360853	0.05214271601343945	-0.7792899113661343	0.10061587963512861	0.08176237661514277	-0.7878521507666015	0.16090874577689343	0.2370863817521074	-0.8346786639096948	0.3365429911956594	0.18531982182867135	0.04783909410314285	0.3426897210589173	0.14348530409207275	-0.35590224522727276	0.33980743441276345	0.23840153766771652	-0.827859088320639	0.3268286097403183	0.05448885612542421	-0.7858302898249725	0.3647247494017716	0.09674388856498342	-0.7975943944051703	0.33001069329516325	0.2776671009085529	-0.8769028035178736	0.2316972068979575	0.24855120329754485	0.542235418381178	0.20297349839725445	0.1784561636904983	0.7980895296525303	0.2053053408648472	0.12398326379374515	0.6742291433360157	0.06460122841972589	0.2112065469825484	0.5001491787044006	-0.014296459254405949	0.29988936620577705	0.2272717483278508	0.013818521733483191	0.19649340025016834	0.03992098254921812	0.07059417340705242	0.09810866186479084	-0.033690015721585184	0.06171969603015651	0.08317525595781826	-0.046829051957296364	0.006285736460101617	0.15892622022678823	-0.08040628670775515	0.37188516885547973	0.2567124850176817	0.4872733324478595	0.43923231391636236	0.39559376394100165	0.24137922675373388	0.408837006177465	0.16063149172937413	0.25081531139127483	0.3853936728199579	0.06968090765374929	0.3056855851581266	0.3917480709616599	0.04853182823062681	0.2824122623773798	0.3881320162107293	0.05968057277225916	0.24611188837595938
